<svg width="1024" height="1024" viewBox="0 0 1024 1024" xmlns="http://www.w3.org/2000/svg">
  <defs>
    <linearGradient id="bg" x1="0" y1="0" x2="1" y2="1">
      <stop offset="0" stop-color="#027E2F"></stop>
      <stop offset="1" stop-color="#008A99"></stop>
    </linearGradient>
    <radialGradient id="glow" cx="0.26" cy="0.16" r="1.0">
      <stop offset="0" stop-color="#03C94C" stop-opacity="0.38"></stop>
      <stop offset="0.6" stop-color="#03C94C" stop-opacity="0"></stop>
    </radialGradient>
    <linearGradient id="vign" x1="0" y1="0" x2="0" y2="1">
      <stop offset="0.55" stop-color="#00251F" stop-opacity="0"></stop>
      <stop offset="1" stop-color="#00251F" stop-opacity="0.18"></stop>
    </linearGradient>
    <filter id="soft" x="-60%" y="-60%" width="220%" height="220%">
      <feGaussianBlur stdDeviation="30"></feGaussianBlur>
    </filter>
  </defs>

  <rect width="1024" height="1024" rx="232" fill="url(#bg)"></rect>
  <rect width="1024" height="1024" rx="232" fill="url(#glow)"></rect>
  <rect width="1024" height="1024" rx="232" fill="url(#vign)"></rect>

  <g transform="translate(512 530)">
    
    <g transform="rotate(-4)">
      <rect x="-222" y="-240" width="444" height="580" rx="48" fill="#012B22" opacity="0.38" filter="url(#soft)" transform="translate(14 52)"></rect>
    </g>

    
    <g transform="rotate(-19)">
      <rect x="-222" y="-290" width="444" height="580" rx="48" fill="#DDE9DE"></rect>
    </g>
    <g transform="rotate(13)">
      <rect x="-222" y="-290" width="444" height="580" rx="48" fill="#EDF3ED"></rect>
    </g>

    
    <g transform="rotate(-4)">
      <rect x="-222" y="-290" width="444" height="580" rx="48" fill="#FFFFFF"></rect>

      
      <rect x="-146" y="-238" width="292" height="46" rx="23" fill="#027E2F"></rect>

      
      <g fill="#D7DFD7">
        <rect x="-82" y="-110" width="228" height="38" rx="19"></rect>
        <rect x="-82" y="26" width="196" height="38" rx="19"></rect>
        <rect x="-82" y="162" width="160" height="38" rx="19"></rect>
      </g>

      
      <g fill="#CBD6CB">
        <circle cx="-142" cy="-91" r="32"></circle>
        <circle cx="-142" cy="181" r="32"></circle>
      </g>

      
      <circle cx="-142" cy="45" r="37" fill="#DCCB6A"></circle>
      <path d="M -160 45 l 12 13 l 24 -27" fill="none" stroke="#0B5A2A" stroke-width="14" stroke-linecap="round" stroke-linejoin="round"></path>
    </g>
  </g>
</svg>